<svg width="48" height="48" viewBox="0 0 48 48" fill="none" xmlns="http://www.w3.org/2000/svg">
<rect width="48" height="48" rx="24" fill="white"/>
<path d="M32 24C32 19.5817 28.4183 16 24 16C19.5817 16 16 19.5817 16 24C16 27.993 18.9255 31.3027 22.75 31.9028V26.3125H20.7188V24H22.75V22.2375C22.75 20.2325 23.9444 19.125 25.7718 19.125C26.647 19.125 27.5625 19.2812 27.5625 19.2812V21.25H26.5538C25.5599 21.25 25.25 21.8667 25.25 22.4994V24H27.4688L27.1141 26.3125H25.25V31.9028C29.0745 31.3027 32 27.9931 32 24Z" fill="#1877F2"/>
<path d="M27.1141 26.3125L27.4688 24H25.25V22.4994C25.25 21.8666 25.5599 21.25 26.5538 21.25H27.5625V19.2812C27.5625 19.2812 26.647 19.125 25.7717 19.125C23.9444 19.125 22.75 20.2325 22.75 22.2375V24H20.7188V26.3125H22.75V31.9028C23.1635 31.9676 23.5814 32.0001 24 32C24.4186 32.0001 24.8365 31.9676 25.25 31.9028V26.3125H27.1141Z" fill="white"/>
</svg>
