<svg width="471" height="154" viewBox="0 0 471 154" fill="none" xmlns="http://www.w3.org/2000/svg">
<path d="M51.3872 153.981C43.8608 153.981 36.5696 152.805 29.5136 150.453C22.5248 148.101 16.4096 144.741 11.168 140.373C5.9264 136.005 2.2304 130.797 0.0800005 124.749L13.2848 119.809C14.7632 123.976 17.4512 127.571 21.3488 130.595C25.3136 133.552 29.9168 135.837 35.1584 137.449C40.4672 139.062 45.8768 139.869 51.3872 139.869C57.8384 139.869 63.8528 138.793 69.4304 136.643C75.008 134.493 79.5104 131.502 82.9376 127.672C86.3648 123.774 88.0784 119.205 88.0784 113.963C88.0784 108.654 86.2976 104.286 82.736 100.859C79.1744 97.4319 74.5712 94.7439 68.9264 92.7951C63.3488 90.7791 57.5024 89.2335 51.3872 88.1583C41.7776 86.4783 33.1424 84.1935 25.4816 81.3039C17.888 78.4143 11.8736 74.3487 7.4384 69.1071C3.0032 63.7983 0.785601 56.8095 0.785601 48.1407C0.785601 40.0095 3.1376 32.9535 7.8416 26.9727C12.5456 20.9919 18.728 16.3551 26.3888 13.0622C34.1168 9.76945 42.4496 8.12305 51.3872 8.12305C58.712 8.12305 65.8688 9.26545 72.8576 11.5503C79.8464 13.8351 85.9952 17.1615 91.304 21.5294C96.68 25.8975 100.544 31.2399 102.896 37.5567L89.4896 42.3951C88.0112 38.1615 85.2896 34.5663 81.3248 31.6095C77.4272 28.5855 72.8576 26.3007 67.616 24.7551C62.3744 23.1423 56.9648 22.3359 51.3872 22.3359C45.0032 22.2687 39.0224 23.3439 33.4448 25.5615C27.9344 27.7119 23.4656 30.7359 20.0384 34.6334C16.6112 38.4639 14.8976 42.9663 14.8976 48.1407C14.8976 54.1887 16.4768 58.8591 19.6352 62.1519C22.8608 65.3775 27.2288 67.7967 32.7392 69.4095C38.2496 71.0223 44.4656 72.4671 51.3872 73.7439C60.392 75.2895 68.7584 77.7087 76.4864 81.0015C84.2144 84.2271 90.4304 88.5615 95.1344 94.0047C99.8384 99.3807 102.19 106.033 102.19 113.963C102.19 122.027 99.8384 129.083 95.1344 135.131C90.4304 141.112 84.2144 145.749 76.4864 149.041C68.8256 152.334 60.4592 153.981 51.3872 153.981ZM172.067 64.6719H147.976L147.875 151.36H133.763L133.864 64.6719H115.619V50.5599H133.864L133.763 18.9087H147.875L147.976 50.5599H172.067V64.6719ZM266.557 50.5599H280.669V151.36H266.557L266.053 132.611C262.76 138.995 258.157 144.169 252.243 148.134C246.33 152.032 239.274 153.981 231.075 153.981C223.683 153.981 216.762 152.603 210.31 149.848C203.859 147.025 198.181 143.161 193.275 138.256C188.37 133.35 184.539 127.672 181.784 121.221C179.029 114.769 177.651 107.848 177.651 100.456C177.651 93.1983 178.995 86.3775 181.683 79.9935C184.438 73.6095 188.202 67.9983 192.973 63.1599C197.811 58.3215 203.389 54.5583 209.706 51.8703C216.09 49.1151 222.91 47.7375 230.168 47.7375C238.568 47.7375 245.893 49.7535 252.142 53.7855C258.392 57.7503 263.365 62.9583 267.061 69.4095L266.557 50.5599ZM230.773 140.272C237.963 140.272 244.146 138.525 249.32 135.03C254.494 131.469 258.459 126.697 261.214 120.717C264.037 114.736 265.448 108.15 265.448 100.96C265.448 93.5679 264.037 86.9151 261.214 81.0015C258.392 75.0207 254.394 70.2831 249.219 66.7887C244.045 63.2943 237.896 61.5471 230.773 61.5471C223.65 61.5471 217.131 63.3279 211.218 66.8895C205.371 70.3839 200.701 75.1215 197.206 81.1023C193.779 87.0831 192.066 93.7023 192.066 100.96C192.066 108.285 193.846 114.937 197.408 120.918C200.97 126.832 205.674 131.536 211.52 135.03C217.434 138.525 223.851 140.272 230.773 140.272ZM297.24 151.36V50.5599H311.352V64.4703C314.913 59.3631 319.55 55.2975 325.262 52.2735C330.974 49.2495 337.19 47.7375 343.91 47.7375C347.808 47.7375 351.571 48.2415 355.2 49.2495L349.454 63.2607C346.632 62.3871 343.877 61.9503 341.189 61.9503C335.745 61.9503 330.739 63.2943 326.169 65.9823C321.667 68.6703 318.072 72.2655 315.384 76.7679C312.696 81.2703 311.352 86.2767 311.352 91.7871V151.36H297.24ZM442.058 151.36H425.829L397.605 102.673L377.445 126.765V151.36H363.333V0.159847H377.445V104.79L422.906 50.5599H441.353L407.181 91.1823L442.058 151.36ZM462.693 153.981C460.475 153.981 458.594 153.174 457.048 151.561C455.502 150.016 454.73 148.101 454.73 145.816C454.73 143.665 455.502 141.817 457.048 140.272C458.594 138.659 460.475 137.853 462.693 137.853C464.978 137.853 466.893 138.659 468.438 140.272C470.051 141.817 470.858 143.665 470.858 145.816C470.858 148.101 470.051 150.016 468.438 151.561C466.893 153.174 464.978 153.981 462.693 153.981Z" fill="white"/>
</svg>
