<svg width="48" height="48" viewBox="0 0 48 48" fill="none" xmlns="http://www.w3.org/2000/svg">
<rect width="48" height="48" rx="24" fill="white"/>
<path d="M28.25 16H19.75C17.6789 16 16 17.6789 16 19.75V28.25C16 30.3211 17.6789 32 19.75 32H28.25C30.3211 32 32 30.3211 32 28.25V19.75C32 17.6789 30.3211 16 28.25 16Z" fill="url(#paint0_radial_318_193)"/>
<path d="M28.25 16H19.75C17.6789 16 16 17.6789 16 19.75V28.25C16 30.3211 17.6789 32 19.75 32H28.25C30.3211 32 32 30.3211 32 28.25V19.75C32 17.6789 30.3211 16 28.25 16Z" fill="url(#paint1_radial_318_193)"/>
<path d="M24.0006 17.75C22.3032 17.75 22.0901 17.7574 21.4235 17.7878C20.7581 17.8183 20.3039 17.9236 19.9066 18.0781C19.4954 18.2377 19.1468 18.4513 18.7994 18.7988C18.4517 19.1462 18.2381 19.4949 18.078 19.9059C17.923 20.3034 17.8176 20.7578 17.7876 21.4228C17.7578 22.0895 17.75 22.3026 17.75 24.0001C17.75 25.6975 17.7575 25.9099 17.7878 26.5765C17.8184 27.2419 17.9237 27.6961 18.0781 28.0934C18.2379 28.5046 18.4514 28.8533 18.7989 29.2006C19.1463 29.5483 19.4949 29.7624 19.9058 29.922C20.3034 30.0766 20.7577 30.1819 21.4229 30.2124C22.0896 30.2427 22.3025 30.2501 23.9998 30.2501C25.6974 30.2501 25.9097 30.2427 26.5764 30.2124C27.2417 30.1819 27.6964 30.0766 28.0941 29.922C28.5051 29.7624 28.8532 29.5483 29.2005 29.2006C29.5482 28.8533 29.7617 28.5046 29.9219 28.0936C30.0755 27.6961 30.181 27.2417 30.2122 26.5766C30.2422 25.91 30.25 25.6975 30.25 24.0001C30.25 22.3026 30.2422 22.0896 30.2122 21.4229C30.181 20.7576 30.0755 20.3034 29.9219 19.9061C29.7617 19.4949 29.5482 19.1462 29.2005 18.7988C28.8529 18.4512 28.5052 18.2376 28.0938 18.0782C27.6953 17.9236 27.2409 17.8182 26.5755 17.7878C25.9088 17.7574 25.6966 17.75 23.9986 17.75H24.0006ZM23.4399 18.8763C23.6063 18.8761 23.792 18.8763 24.0006 18.8763C25.6694 18.8763 25.8671 18.8823 26.5261 18.9123C27.1355 18.9401 27.4663 19.0419 27.6866 19.1275C27.9783 19.2408 28.1862 19.3762 28.4048 19.595C28.6236 19.8138 28.7589 20.0221 28.8725 20.3137C28.9581 20.5337 29.06 20.8645 29.0878 21.4739C29.1177 22.1328 29.1242 22.3306 29.1242 23.9986C29.1242 25.6666 29.1177 25.8646 29.0878 26.5234C29.0599 27.1327 28.9581 27.4635 28.8725 27.6836C28.7593 27.9753 28.6236 28.1829 28.4048 28.4016C28.1861 28.6203 27.9784 28.7557 27.6866 28.869C27.4665 28.9549 27.1355 29.0565 26.5261 29.0844C25.8673 29.1143 25.6694 29.1208 24.0006 29.1208C22.3317 29.1208 22.1339 29.1143 21.4751 29.0844C20.8657 29.0563 20.5349 28.9544 20.3144 28.8689C20.0228 28.7556 19.8144 28.6202 19.5957 28.4014C19.3769 28.1827 19.2416 27.9749 19.128 27.6831C19.0424 27.463 18.9405 27.1322 18.9128 26.5229C18.8828 25.864 18.8768 25.6661 18.8768 23.9971C18.8768 22.328 18.8828 22.1312 18.9128 21.4723C18.9406 20.8629 19.0424 20.5322 19.128 20.3119C19.2413 20.0202 19.3769 19.8119 19.5958 19.5931C19.8146 19.3744 20.0228 19.2389 20.3145 19.1254C20.5348 19.0395 20.8657 18.9379 21.4751 18.9099C22.0516 18.8839 22.2751 18.8761 23.4399 18.8747V18.8763ZM27.3368 19.9141C26.9228 19.9141 26.5868 20.2497 26.5868 20.6638C26.5868 21.0779 26.9228 21.4138 27.3368 21.4138C27.7509 21.4138 28.0868 21.0779 28.0868 20.6638C28.0868 20.2498 27.7509 19.9138 27.3368 19.9138V19.9141ZM24.0006 20.7904C22.2281 20.7904 20.7909 22.2275 20.7909 24.0001C20.7909 25.7726 22.2281 27.2091 24.0006 27.2091C25.7731 27.2091 27.2098 25.7726 27.2098 24.0001C27.2098 22.2276 25.773 20.7904 24.0004 20.7904H24.0006ZM24.0006 21.9167C25.1511 21.9167 26.0839 22.8494 26.0839 24.0001C26.0839 25.1506 25.1511 26.0834 24.0006 26.0834C22.85 26.0834 21.9173 25.1506 21.9173 24.0001C21.9173 22.8494 22.8499 21.9167 24.0006 21.9167Z" fill="white"/>
<defs>
<radialGradient id="paint0_radial_318_193" cx="0" cy="0" r="1" gradientUnits="userSpaceOnUse" gradientTransform="translate(20.25 33.2323) rotate(-90) scale(15.8572 14.7484)">
<stop stop-color="#FFDD55"/>
<stop offset="0.1" stop-color="#FFDD55"/>
<stop offset="0.5" stop-color="#FF543E"/>
<stop offset="1" stop-color="#C837AB"/>
</radialGradient>
<radialGradient id="paint1_radial_318_193" cx="0" cy="0" r="1" gradientUnits="userSpaceOnUse" gradientTransform="translate(13.3199 17.1526) rotate(78.681) scale(7.08825 29.218)">
<stop stop-color="#3771C8"/>
<stop offset="0.128" stop-color="#3771C8"/>
<stop offset="1" stop-color="#6600FF" stop-opacity="0"/>
</radialGradient>
</defs>
</svg>
