<svg width="545" height="134" viewBox="0 0 545 134" fill="none" xmlns="http://www.w3.org/2000/svg">
<path d="M3.66 70.36V75.36H12.26V77H1.8V62.42H11.9V64.06H3.66V68.72H11.6V70.36H3.66ZM21.259 69.44H19.499C19.459 68.34 18.739 67.76 17.399 67.76C16.039 67.76 15.179 68.36 15.179 69.34C15.179 70.08 15.759 70.52 17.119 70.84L18.719 71.22C20.799 71.72 21.679 72.58 21.679 74.14C21.679 76.16 19.999 77.46 17.359 77.46C14.619 77.46 13.259 76.3 13.179 73.88H14.939C15.039 74.62 15.159 74.92 15.419 75.22C15.839 75.66 16.599 75.92 17.499 75.92C18.959 75.92 19.939 75.26 19.939 74.26C19.939 73.52 19.479 73.1 18.319 72.82L16.759 72.44C14.279 71.84 13.439 71.06 13.439 69.42C13.439 67.48 15.019 66.22 17.459 66.22C19.879 66.22 21.239 67.38 21.259 69.44ZM26.8944 66.52V67.88H25.1744V75.06C25.1744 75.8 25.3744 76 26.0944 76C26.4344 76 26.6544 75.98 26.8944 75.92V77.32C26.3344 77.42 25.9744 77.46 25.5344 77.46C24.2344 77.46 23.5144 76.88 23.5144 75.8V67.88H22.0944V66.52H23.5144V63.64H25.1744V66.52H26.8944Z" fill="url(#paint0_linear_35_258)"/>
<mask id="path-2-outside-1_35_258" maskUnits="userSpaceOnUse" x="83" y="0" width="359" height="134" fill="black">
<rect fill="white" x="83" width="359" height="134"/>
<path d="M125.8 125.92C107.24 125.92 95.4 117.44 92.68 99.84H95.72C98.28 115.36 109 123.04 125.8 123.04C142.44 123.04 153.32 116.32 153.32 103.84C153.32 93.12 146.44 88.16 132.04 85.12L114.28 81.28C100.2 78.24 93.96 72.96 93.96 61.6C93.96 48.8 104.36 39.36 122.92 39.36C141.32 39.36 152.52 47.84 154.44 66.72H151.4C149.64 50.08 139.72 42.24 122.92 42.24C105.8 42.24 96.84 50.4 96.84 61.6C96.84 71.04 101.64 75.68 115.08 78.56L133.32 82.4C149.16 85.76 156.2 91.52 156.2 103.84C156.2 117.92 144.36 125.92 125.8 125.92ZM205.264 44.16H184.144V106.56C184.144 119.2 191.184 122.08 198.544 122.08C201.264 122.08 202.704 121.92 205.264 121.6V124.32C203.024 124.8 201.584 124.96 198.224 124.96C188.784 124.96 181.264 120.16 181.264 107.2V44.16H166.224V41.28H181.264V17.92H184.144V41.28H205.264V44.16ZM252.696 39.36C270.616 39.36 280.696 50.4 280.696 68V124H277.976V102.88C273.176 117.6 260.536 125.92 245.176 125.92C227.576 125.92 217.336 115.04 217.336 102.08C217.336 89.28 225.656 80.16 242.936 78.24L277.816 74.24V68.16C277.816 52.16 268.696 42.24 252.856 42.24C236.856 42.24 225.816 49.6 223.416 66.72H220.376C222.616 48.8 234.456 39.36 252.696 39.36ZM245.176 123.04C264.536 123.04 277.816 108.48 277.816 89.12V77.12L243.096 81.12C227.416 82.88 220.216 91.2 220.216 102.24C220.216 113.6 229.656 123.04 245.176 123.04ZM336.635 40.32C337.435 40.32 337.915 40.32 339.035 40.48V43.36C337.755 43.2 336.955 43.2 335.995 43.2C322.715 43.2 311.835 55.2 311.835 76V124H308.955V41.28H311.515V61.6C314.075 50.24 323.515 40.32 336.635 40.32ZM410.914 41.28L362.754 78.72L410.914 124H407.074L359.554 79.52V124H356.674V8.8H359.554V77.92L407.074 41.28H410.914ZM429.579 116.96C431.979 116.96 433.899 118.88 433.899 121.44C433.899 123.84 431.979 125.92 429.579 125.92C427.019 125.92 425.099 123.84 425.099 121.44C425.099 118.88 427.019 116.96 429.579 116.96Z"/>
</mask>
<path d="M125.8 125.92C107.24 125.92 95.4 117.44 92.68 99.84H95.72C98.28 115.36 109 123.04 125.8 123.04C142.44 123.04 153.32 116.32 153.32 103.84C153.32 93.12 146.44 88.16 132.04 85.12L114.28 81.28C100.2 78.24 93.96 72.96 93.96 61.6C93.96 48.8 104.36 39.36 122.92 39.36C141.32 39.36 152.52 47.84 154.44 66.72H151.4C149.64 50.08 139.72 42.24 122.92 42.24C105.8 42.24 96.84 50.4 96.84 61.6C96.84 71.04 101.64 75.68 115.08 78.56L133.32 82.4C149.16 85.76 156.2 91.52 156.2 103.84C156.2 117.92 144.36 125.92 125.8 125.92ZM205.264 44.16H184.144V106.56C184.144 119.2 191.184 122.08 198.544 122.08C201.264 122.08 202.704 121.92 205.264 121.6V124.32C203.024 124.8 201.584 124.96 198.224 124.96C188.784 124.96 181.264 120.16 181.264 107.2V44.16H166.224V41.28H181.264V17.92H184.144V41.28H205.264V44.16ZM252.696 39.36C270.616 39.36 280.696 50.4 280.696 68V124H277.976V102.88C273.176 117.6 260.536 125.92 245.176 125.92C227.576 125.92 217.336 115.04 217.336 102.08C217.336 89.28 225.656 80.16 242.936 78.24L277.816 74.24V68.16C277.816 52.16 268.696 42.24 252.856 42.24C236.856 42.24 225.816 49.6 223.416 66.72H220.376C222.616 48.8 234.456 39.36 252.696 39.36ZM245.176 123.04C264.536 123.04 277.816 108.48 277.816 89.12V77.12L243.096 81.12C227.416 82.88 220.216 91.2 220.216 102.24C220.216 113.6 229.656 123.04 245.176 123.04ZM336.635 40.32C337.435 40.32 337.915 40.32 339.035 40.48V43.36C337.755 43.2 336.955 43.2 335.995 43.2C322.715 43.2 311.835 55.2 311.835 76V124H308.955V41.28H311.515V61.6C314.075 50.24 323.515 40.32 336.635 40.32ZM410.914 41.28L362.754 78.72L410.914 124H407.074L359.554 79.52V124H356.674V8.8H359.554V77.92L407.074 41.28H410.914ZM429.579 116.96C431.979 116.96 433.899 118.88 433.899 121.44C433.899 123.84 431.979 125.92 429.579 125.92C427.019 125.92 425.099 123.84 425.099 121.44C425.099 118.88 427.019 116.96 429.579 116.96Z" fill="url(#paint1_linear_35_258)"/>
<path d="M92.68 99.84V91.84H83.3487L84.7739 101.062L92.68 99.84ZM95.72 99.84L103.613 98.538L102.509 91.84H95.72V99.84ZM132.04 85.12L130.349 92.9393L130.368 92.9434L130.388 92.9475L132.04 85.12ZM114.28 81.28L115.971 73.4607L115.968 73.4602L114.28 81.28ZM154.44 66.72V74.72H163.295L162.399 65.9106L154.44 66.72ZM151.4 66.72L143.444 67.5615L144.202 74.72H151.4V66.72ZM115.08 78.56L113.404 86.3824L113.418 86.3854L113.432 86.3884L115.08 78.56ZM133.32 82.4L134.98 74.5741L134.968 74.5716L133.32 82.4ZM125.8 125.92V117.92C117.671 117.92 111.979 116.061 108.176 113.137C104.494 110.307 101.697 105.804 100.586 98.6181L92.68 99.84L84.7739 101.062C86.3834 111.476 90.866 120.013 98.4245 125.823C105.861 131.539 115.369 133.92 125.8 133.92V125.92ZM92.68 99.84V107.84H95.72V99.84V91.84H92.68V99.84ZM95.72 99.84L87.8267 101.142C89.3778 110.546 93.575 118.328 100.592 123.639C107.486 128.857 116.244 131.04 125.8 131.04V123.04V115.04C118.556 115.04 113.554 113.383 110.248 110.881C107.065 108.472 104.622 104.654 103.613 98.538L95.72 99.84ZM125.8 123.04V131.04C135.032 131.04 143.683 129.201 150.276 124.751C157.239 120.051 161.32 112.787 161.32 103.84H153.32H145.32C145.32 107.373 143.961 109.709 141.324 111.489C138.317 113.519 133.208 115.04 125.8 115.04V123.04ZM153.32 103.84H161.32C161.32 96.4715 158.81 90.1707 153.229 85.4771C148.161 81.2155 141.244 78.8867 133.692 77.2925L132.04 85.12L130.388 92.9475C137.236 94.3933 140.959 96.0645 142.931 97.7229C144.39 98.9493 145.32 100.488 145.32 103.84H153.32ZM132.04 85.12L133.731 77.3007L115.971 73.4607L114.28 81.28L112.589 89.0993L130.349 92.9393L132.04 85.12ZM114.28 81.28L115.968 73.4602C109.382 72.0382 106.037 70.3452 104.319 68.7303C102.994 67.486 101.96 65.6662 101.96 61.6H93.96H85.96C85.96 68.8938 88.0455 75.394 93.3615 80.3897C98.283 85.0148 105.098 87.4818 112.592 89.0998L114.28 81.28ZM93.96 61.6H101.96C101.96 57.5475 103.52 54.3074 106.496 51.9121C109.624 49.3946 114.924 47.36 122.92 47.36V39.36V31.36C112.356 31.36 103.176 34.0453 96.4639 39.4479C89.6 44.9726 85.96 52.8525 85.96 61.6H93.96ZM122.92 39.36V47.36C130.978 47.36 136.298 49.2197 139.718 52.0888C143.041 54.8764 145.669 59.5409 146.481 67.5294L154.44 66.72L162.399 65.9106C161.291 55.0191 157.359 46.0036 150.002 39.8312C142.742 33.7403 133.262 31.36 122.92 31.36V39.36ZM154.44 66.72V58.72H151.4V66.72V74.72H154.44V66.72ZM151.4 66.72L159.356 65.8785C158.323 56.1136 154.748 47.8398 147.952 42.1194C141.241 36.4715 132.486 34.24 122.92 34.24V42.24V50.24C130.154 50.24 134.759 51.9284 137.648 54.3606C140.452 56.7202 142.717 60.6864 143.444 67.5615L151.4 66.72ZM122.92 42.24V34.24C113.188 34.24 104.728 36.5517 98.5187 41.4285C92.1111 46.4609 88.84 53.67 88.84 61.6H96.84H104.84C104.84 58.33 106.049 55.8591 108.401 54.0115C110.952 52.0083 115.532 50.24 122.92 50.24V42.24ZM96.84 61.6H88.84C88.84 67.8028 90.4913 73.729 95.4485 78.3763C99.9578 82.6038 106.29 84.8581 113.404 86.3824L115.08 78.56L116.756 70.7376C110.43 69.3819 107.642 67.8762 106.392 66.7037C105.589 65.951 104.84 64.8372 104.84 61.6H96.84ZM115.08 78.56L113.432 86.3884L131.672 90.2284L133.32 82.4L134.968 74.5716L116.728 70.7316L115.08 78.56ZM133.32 82.4L131.66 90.2259C139.157 91.8162 143.174 93.7298 145.319 95.6795C147.027 97.2329 148.2 99.3909 148.2 103.84H156.2H164.2C164.2 95.9691 161.853 89.0871 156.081 83.8405C150.746 78.9902 143.323 76.3438 134.98 74.5741L133.32 82.4ZM156.2 103.84H148.2C148.2 108.318 146.471 111.399 143.319 113.643C139.848 116.116 134.076 117.92 125.8 117.92V125.92V133.92C136.084 133.92 145.512 131.724 152.601 126.677C160.009 121.401 164.2 113.442 164.2 103.84H156.2ZM205.264 44.16V52.16H213.264V44.16H205.264ZM184.144 44.16V36.16H176.144V44.16H184.144ZM205.264 121.6H213.264V112.538L204.271 113.662L205.264 121.6ZM205.264 124.32L206.94 132.142L213.264 130.787V124.32H205.264ZM181.264 44.16H189.264V36.16H181.264V44.16ZM166.224 44.16H158.224V52.16H166.224V44.16ZM166.224 41.28V33.28H158.224V41.28H166.224ZM181.264 41.28V49.28H189.264V41.28H181.264ZM181.264 17.92V9.91999H173.264V17.92H181.264ZM184.144 17.92H192.144V9.91999H184.144V17.92ZM184.144 41.28H176.144V49.28H184.144V41.28ZM205.264 41.28H213.264V33.28H205.264V41.28ZM205.264 44.16V36.16H184.144V44.16V52.16H205.264V44.16ZM184.144 44.16H176.144V106.56H184.144H192.144V44.16H184.144ZM184.144 106.56H176.144C176.144 114.344 178.355 120.824 183.374 125.131C188.156 129.235 194.036 130.08 198.544 130.08V122.08V114.08C195.692 114.08 194.371 113.485 193.794 112.989C193.452 112.696 192.144 111.416 192.144 106.56H184.144ZM198.544 122.08V130.08C201.745 130.08 203.56 129.875 206.256 129.538L205.264 121.6L204.271 113.662C201.848 113.965 200.782 114.08 198.544 114.08V122.08ZM205.264 121.6H197.264V124.32H205.264H213.264V121.6H205.264ZM205.264 124.32L203.588 116.498C202.012 116.835 201.15 116.96 198.224 116.96V124.96V132.96C202.017 132.96 204.035 132.765 206.94 132.142L205.264 124.32ZM198.224 124.96V116.96C194.751 116.96 192.73 116.075 191.625 115.057C190.644 114.153 189.264 112.115 189.264 107.2H181.264H173.264C173.264 115.245 175.643 122.087 180.782 126.823C185.797 131.445 192.256 132.96 198.224 132.96V124.96ZM181.264 107.2H189.264V44.16H181.264H173.264V107.2H181.264ZM181.264 44.16V36.16H166.224V44.16V52.16H181.264V44.16ZM166.224 44.16H174.224V41.28H166.224H158.224V44.16H166.224ZM166.224 41.28V49.28H181.264V41.28V33.28H166.224V41.28ZM181.264 41.28H189.264V17.92H181.264H173.264V41.28H181.264ZM181.264 17.92V25.92H184.144V17.92V9.91999H181.264V17.92ZM184.144 17.92H176.144V41.28H184.144H192.144V17.92H184.144ZM184.144 41.28V49.28H205.264V41.28V33.28H184.144V41.28ZM205.264 41.28H197.264V44.16H205.264H213.264V41.28H205.264ZM280.696 124V132H288.696V124H280.696ZM277.976 124H269.976V132H277.976V124ZM277.976 102.88H285.976L270.37 100.4L277.976 102.88ZM242.936 78.24L243.82 86.1911L243.834 86.1895L243.848 86.1879L242.936 78.24ZM277.816 74.24L278.728 82.1879L285.816 81.375V74.24H277.816ZM223.416 66.72V74.72H230.373L231.339 67.8306L223.416 66.72ZM220.376 66.72L212.438 65.7277L211.314 74.72H220.376V66.72ZM277.816 77.12H285.816V68.1454L276.901 69.1726L277.816 77.12ZM243.096 81.12L243.989 89.0701L244 89.0688L244.012 89.0674L243.096 81.12ZM252.696 39.36V47.36C259.982 47.36 264.71 49.5617 267.644 52.6193C270.625 55.7253 272.696 60.6978 272.696 68H280.696H288.696C288.696 57.7022 285.727 48.3547 279.188 41.5407C272.603 34.6783 263.33 31.36 252.696 31.36V39.36ZM280.696 68H272.696V124H280.696H288.696V68H280.696ZM280.696 124V116H277.976V124V132H280.696V124ZM277.976 124H285.976V102.88H277.976H269.976V124H277.976ZM277.976 102.88L270.37 100.4C266.739 111.535 257.391 117.92 245.176 117.92V125.92V133.92C263.681 133.92 279.613 123.664 285.582 105.36L277.976 102.88ZM245.176 125.92V117.92C238.042 117.92 233.107 115.739 230.046 112.948C226.999 110.17 225.336 106.379 225.336 102.08H217.336H209.336C209.336 110.741 212.793 118.87 219.266 124.772C225.726 130.661 234.711 133.92 245.176 133.92V125.92ZM217.336 102.08H225.336C225.336 97.5177 226.759 94.2195 229.231 91.8175C231.826 89.2959 236.353 87.0207 243.82 86.1911L242.936 78.24L242.053 70.2889C232.24 71.3793 223.966 74.6241 218.081 80.3425C212.073 86.1805 209.336 93.8423 209.336 102.08H217.336ZM242.936 78.24L243.848 86.1879L278.728 82.1879L277.816 74.24L276.905 66.2921L242.025 70.2921L242.936 78.24ZM277.816 74.24H285.816V68.16H277.816H269.816V74.24H277.816ZM277.816 68.16H285.816C285.816 58.6715 283.093 50.0179 277.074 43.6873C271.001 37.3008 262.486 34.24 252.856 34.24V42.24V50.24C259.066 50.24 263.032 52.1392 265.479 54.7127C267.979 57.3421 269.816 61.6485 269.816 68.16H277.816ZM252.856 42.24V34.24C243.702 34.24 234.992 36.3436 228.09 41.772C221.07 47.2944 216.915 55.473 215.494 65.6094L223.416 66.72L231.339 67.8306C232.318 60.847 234.883 56.7856 237.982 54.348C241.201 51.8164 246.011 50.24 252.856 50.24V42.24ZM223.416 66.72V58.72H220.376V66.72V74.72H223.416V66.72ZM220.376 66.72L228.314 67.7123C229.235 60.3518 231.989 55.523 235.658 52.4658C239.387 49.3582 244.93 47.36 252.696 47.36V39.36V31.36C242.223 31.36 232.726 34.0818 225.415 40.1742C218.043 46.317 213.758 55.1682 212.438 65.7277L220.376 66.72ZM245.176 123.04V131.04C269.358 131.04 285.816 112.484 285.816 89.12H277.816H269.816C269.816 104.476 259.715 115.04 245.176 115.04V123.04ZM277.816 89.12H285.816V77.12H277.816H269.816V89.12H277.816ZM277.816 77.12L276.901 69.1726L242.181 73.1726L243.096 81.12L244.012 89.0674L278.732 85.0674L277.816 77.12ZM243.096 81.12L242.204 73.1699C233.172 74.1837 225.578 77.1998 220.181 82.4827C214.672 87.8743 212.216 94.8831 212.216 102.24H220.216H228.216C228.216 98.5569 229.361 95.8857 231.372 93.9174C233.494 91.8402 237.341 89.8163 243.989 89.0701L243.096 81.12ZM220.216 102.24H212.216C212.216 118.956 226.238 131.04 245.176 131.04V123.04V115.04C233.075 115.04 228.216 108.244 228.216 102.24H220.216ZM339.035 40.48H347.035V33.5416L340.166 32.5604L339.035 40.48ZM339.035 43.36L338.043 51.2982L347.035 52.4222V43.36H339.035ZM311.835 124V132H319.835V124H311.835ZM308.955 124H300.955V132H308.955V124ZM308.955 41.28V33.28H300.955V41.28H308.955ZM311.515 41.28H319.515V33.28H311.515V41.28ZM311.515 61.6H303.515L319.319 63.3587L311.515 61.6ZM336.635 40.32V48.32C337.066 48.32 337.168 48.3219 337.271 48.3277C337.346 48.3318 337.509 48.3432 337.904 48.3996L339.035 40.48L340.166 32.5604C338.526 32.326 337.63 32.32 336.635 32.32V40.32ZM339.035 40.48H331.035V43.36H339.035H347.035V40.48H339.035ZM339.035 43.36L340.027 35.4218C338.236 35.1979 337.031 35.2 335.995 35.2V43.2V51.2C336.495 51.2 336.774 51.2011 337.062 51.2131C337.32 51.2238 337.62 51.2454 338.043 51.2982L339.035 43.36ZM335.995 43.2V35.2C326.755 35.2 318.442 39.445 312.634 46.8714C306.906 54.1943 303.835 64.2607 303.835 76H311.835H319.835C319.835 66.9393 322.204 60.6057 325.236 56.7286C328.188 52.955 331.955 51.2 335.995 51.2V43.2ZM311.835 76H303.835V124H311.835H319.835V76H311.835ZM311.835 124V116H308.955V124V132H311.835V124ZM308.955 124H316.955V41.28H308.955H300.955V124H308.955ZM308.955 41.28V49.28H311.515V41.28V33.28H308.955V41.28ZM311.515 41.28H303.515V61.6H311.515H319.515V41.28H311.515ZM311.515 61.6L319.319 63.3587C321.243 54.8221 328.041 48.32 336.635 48.32V40.32V32.32C318.989 32.32 306.907 45.6578 303.711 59.8413L311.515 61.6ZM410.914 41.28L415.824 47.5959L434.239 33.28H410.914V41.28ZM362.754 78.72L357.844 72.404L350.461 78.1432L357.274 84.5484L362.754 78.72ZM410.914 124V132H431.102L416.394 118.172L410.914 124ZM407.074 124L401.607 129.841L403.914 132H407.074V124ZM359.554 79.52L365.021 73.6794L351.554 61.074V79.52H359.554ZM359.554 124V132H367.554V124H359.554ZM356.674 124H348.674V132H356.674V124ZM356.674 8.8V0.799995H348.674V8.8H356.674ZM359.554 8.8H367.554V0.799995H359.554V8.8ZM359.554 77.92H351.554V94.1903L364.439 84.2554L359.554 77.92ZM407.074 41.28V33.28H404.348L402.189 34.9446L407.074 41.28ZM410.914 41.28L406.004 34.964L357.844 72.404L362.754 78.72L367.664 85.0359L415.824 47.5959L410.914 41.28ZM362.754 78.72L357.274 84.5484L405.434 129.828L410.914 124L416.394 118.172L368.234 72.8916L362.754 78.72ZM410.914 124V116H407.074V124V132H410.914V124ZM407.074 124L412.541 118.159L365.021 73.6794L359.554 79.52L354.087 85.3606L401.607 129.841L407.074 124ZM359.554 79.52H351.554V124H359.554H367.554V79.52H359.554ZM359.554 124V116H356.674V124V132H359.554V124ZM356.674 124H364.674V8.8H356.674H348.674V124H356.674ZM356.674 8.8V16.8H359.554V8.8V0.799995H356.674V8.8ZM359.554 8.8H351.554V77.92H359.554H367.554V8.8H359.554ZM359.554 77.92L364.439 84.2554L411.959 47.6154L407.074 41.28L402.189 34.9446L354.669 71.5846L359.554 77.92ZM407.074 41.28V49.28H410.914V41.28V33.28H407.074V41.28ZM429.579 116.96V124.96C428.588 124.96 427.613 124.545 426.911 123.825C426.206 123.102 425.899 122.207 425.899 121.44H433.899H441.899C441.899 114.654 436.587 108.96 429.579 108.96V116.96ZM433.899 121.44H425.899C425.899 119.803 427.188 117.92 429.579 117.92V125.92V133.92C436.769 133.92 441.899 127.877 441.899 121.44H433.899ZM429.579 125.92V117.92C431.622 117.92 433.099 119.609 433.099 121.44H425.099H417.099C417.099 128.071 422.415 133.92 429.579 133.92V125.92ZM425.099 121.44H433.099C433.099 122.214 432.783 123.149 432.036 123.897C431.288 124.644 430.353 124.96 429.579 124.96V116.96V108.96C422.6 108.96 417.099 114.462 417.099 121.44H425.099Z" fill="url(#paint2_linear_35_258)" mask="url(#path-2-outside-1_35_258)"/>
<path d="M512.12 75.26V77H502.68C502.84 73.88 503.7 72.54 506.66 70.86L508.5 69.82C509.76 69.1 510.42 68.14 510.42 67.02C510.42 65.5 509.22 64.36 507.62 64.36C506.56 64.36 505.64 64.88 505.18 65.74C504.94 66.2 504.82 66.78 504.76 67.74H503C503.04 66.3 503.26 65.42 503.76 64.66C504.54 63.44 505.88 62.82 507.68 62.82C509.04 62.82 510.06 63.18 510.9 63.92C511.74 64.7 512.22 65.8 512.22 66.98C512.22 68.72 511.2 70.18 509.22 71.26L507.22 72.34C505.48 73.36 504.84 74.1 504.66 75.26H512.12ZM517.987 62.82C519.327 62.82 520.507 63.38 521.247 64.38C522.187 65.66 522.627 67.5 522.627 70.26C522.627 74.92 520.987 77.46 517.987 77.46C514.947 77.46 513.347 74.94 513.347 70.14C513.347 67.52 513.807 65.62 514.727 64.38C515.467 63.4 516.667 62.82 517.987 62.82ZM517.987 64.38C516.087 64.38 515.147 66.28 515.147 70.16C515.147 74.04 516.087 76 517.947 76C519.907 76 520.827 74.12 520.827 70.1C520.827 66.28 519.887 64.38 517.987 64.38ZM533.095 75.26V77H523.655C523.815 73.88 524.675 72.54 527.635 70.86L529.475 69.82C530.735 69.1 531.395 68.14 531.395 67.02C531.395 65.5 530.195 64.36 528.595 64.36C527.535 64.36 526.615 64.88 526.155 65.74C525.915 66.2 525.795 66.78 525.735 67.74H523.975C524.015 66.3 524.235 65.42 524.735 64.66C525.515 63.44 526.855 62.82 528.655 62.82C530.015 62.82 531.035 63.18 531.875 63.92C532.715 64.7 533.195 65.8 533.195 66.98C533.195 68.72 532.175 70.18 530.195 71.26L528.195 72.34C526.455 73.36 525.815 74.1 525.635 75.26H533.095ZM538.962 62.82C540.302 62.82 541.482 63.38 542.222 64.38C543.162 65.66 543.602 67.5 543.602 70.26C543.602 74.92 541.962 77.46 538.962 77.46C535.922 77.46 534.322 74.94 534.322 70.14C534.322 67.52 534.782 65.62 535.702 64.38C536.442 63.4 537.642 62.82 538.962 62.82ZM538.962 64.38C537.062 64.38 536.122 66.28 536.122 70.16C536.122 74.04 537.062 76 538.922 76C540.882 76 541.802 74.12 541.802 70.1C541.802 66.28 540.862 64.38 538.962 64.38Z" fill="url(#paint3_linear_35_258)"/>
<defs>
<linearGradient id="paint0_linear_35_258" x1="0" y1="69.5" x2="28" y2="69.5" gradientUnits="userSpaceOnUse">
<stop stop-color="white"/>
<stop offset="1" stop-color="#999999"/>
</linearGradient>
<linearGradient id="paint1_linear_35_258" x1="85" y1="69.5" x2="445" y2="69.5" gradientUnits="userSpaceOnUse">
<stop stop-color="white"/>
<stop offset="1" stop-color="#999999"/>
</linearGradient>
<linearGradient id="paint2_linear_35_258" x1="85" y1="69.5" x2="445" y2="69.5" gradientUnits="userSpaceOnUse">
<stop stop-color="white"/>
<stop offset="1" stop-color="#999999"/>
</linearGradient>
<linearGradient id="paint3_linear_35_258" x1="502" y1="69.5" x2="545" y2="69.5" gradientUnits="userSpaceOnUse">
<stop stop-color="white"/>
<stop offset="1" stop-color="#999999"/>
</linearGradient>
</defs>
</svg>
