<svg width="48" height="48" viewBox="0 0 48 48" fill="none" xmlns="http://www.w3.org/2000/svg">
<rect width="48" height="48" rx="24" fill="white"/>
<path d="M28.25 16H19.75C17.6789 16 16 17.6789 16 19.75V28.25C16 30.3211 17.6789 32 19.75 32H28.25C30.3211 32 32 30.3211 32 28.25V19.75C32 17.6789 30.3211 16 28.25 16Z" fill="white"/>
<path d="M28.25 16H19.75C17.6789 16 16 17.6789 16 19.75V28.25C16 30.3211 17.6789 32 19.75 32H28.25C30.3211 32 32 30.3211 32 28.25V19.75C32 17.6789 30.3211 16 28.25 16Z" fill="#0A66C2"/>
<path d="M27.5447 29.6053H29.3741C29.4404 29.6053 29.5039 29.579 29.5508 29.5321C29.5977 29.4852 29.624 29.4217 29.6241 29.3554L29.625 25.4902C29.625 23.4701 29.1897 21.9173 26.8289 21.9173C25.9314 21.8839 25.0851 22.3465 24.6284 23.119C24.6262 23.1228 24.6228 23.1257 24.6188 23.1273C24.6147 23.129 24.6102 23.1292 24.606 23.1281C24.6018 23.1269 24.5981 23.1245 24.5954 23.121C24.5927 23.1175 24.5913 23.1133 24.5913 23.1089V22.3538C24.5913 22.2874 24.5649 22.2239 24.518 22.177C24.4711 22.1301 24.4076 22.1038 24.3413 22.1038H22.6052C22.5389 22.1038 22.4753 22.1301 22.4284 22.177C22.3815 22.2239 22.3552 22.2874 22.3552 22.3538V29.355C22.3552 29.4213 22.3815 29.4849 22.4284 29.5318C22.4753 29.5787 22.5389 29.605 22.6052 29.605H24.4344C24.5007 29.605 24.5643 29.5787 24.6112 29.5318C24.6581 29.4849 24.6844 29.4213 24.6844 29.355V25.8942C24.6844 24.9156 24.8701 23.9679 26.0833 23.9679C27.2792 23.9679 27.2947 25.0877 27.2947 25.9576V29.3553C27.2947 29.4216 27.321 29.4852 27.3679 29.5321C27.4148 29.579 27.4784 29.6053 27.5447 29.6053ZM18.375 19.7267C18.375 20.4682 18.9854 21.0784 19.727 21.0784C20.4684 21.0783 21.0784 20.4678 21.0784 19.7264C21.0783 18.9851 20.4682 18.375 19.7267 18.375C18.9851 18.375 18.375 18.9852 18.375 19.7267ZM18.8099 29.6053H20.6416C20.7079 29.6053 20.7715 29.579 20.8184 29.5321C20.8653 29.4852 20.8916 29.4216 20.8916 29.3553V22.3538C20.8916 22.2874 20.8653 22.2239 20.8184 22.177C20.7715 22.1301 20.7079 22.1038 20.6416 22.1038H18.8099C18.7436 22.1038 18.68 22.1301 18.6332 22.177C18.5863 22.2239 18.5599 22.2874 18.5599 22.3538V29.3553C18.5599 29.4216 18.5863 29.4852 18.6332 29.5321C18.68 29.579 18.7436 29.6053 18.8099 29.6053Z" fill="white"/>
</svg>
