<svg width="588" height="243" viewBox="0 0 588 243" fill="none" xmlns="http://www.w3.org/2000/svg">
<path d="M61.3872 194.981C53.8608 194.981 46.5696 193.805 39.5136 191.453C32.5248 189.101 26.4096 185.741 21.168 181.373C15.9264 177.005 12.2304 171.797 10.08 165.749L23.2848 160.809C24.7632 164.976 27.4512 168.571 31.3488 171.595C35.3136 174.552 39.9168 176.837 45.1584 178.449C50.4672 180.062 55.8768 180.869 61.3872 180.869C67.8384 180.869 73.8528 179.793 79.4304 177.643C85.008 175.493 89.5104 172.502 92.9376 168.672C96.3648 164.774 98.0784 160.205 98.0784 154.963C98.0784 149.654 96.2976 145.286 92.736 141.859C89.1744 138.432 84.5712 135.744 78.9264 133.795C73.3488 131.779 67.5024 130.233 61.3872 129.158C51.7776 127.478 43.1424 125.193 35.4816 122.304C27.888 119.414 21.8736 115.349 17.4384 110.107C13.0032 104.798 10.7856 97.8095 10.7856 89.1407C10.7856 81.0095 13.1376 73.9535 17.8416 67.9727C22.5456 61.9919 28.728 57.3551 36.3888 54.0622C44.1168 50.7694 52.4496 49.123 61.3872 49.123C68.712 49.123 75.8688 50.2654 82.8576 52.5503C89.8464 54.8351 95.9952 58.1615 101.304 62.5294C106.68 66.8975 110.544 72.2399 112.896 78.5567L99.4896 83.3951C98.0112 79.1615 95.2896 75.5663 91.3248 72.6095C87.4272 69.5855 82.8576 67.3007 77.616 65.7551C72.3744 64.1423 66.9648 63.3359 61.3872 63.3359C55.0032 63.2687 49.0224 64.3439 43.4448 66.5615C37.9344 68.7119 33.4656 71.7359 30.0384 75.6334C26.6112 79.4639 24.8976 83.9663 24.8976 89.1407C24.8976 95.1887 26.4768 99.8591 29.6352 103.152C32.8608 106.377 37.2288 108.797 42.7392 110.409C48.2496 112.022 54.4656 113.467 61.3872 114.744C70.392 116.289 78.7584 118.709 86.4864 122.001C94.2144 125.227 100.43 129.561 105.134 135.005C109.838 140.381 112.19 147.033 112.19 154.963C112.19 163.027 109.838 170.083 105.134 176.131C100.43 182.112 94.2144 186.749 86.4864 190.041C78.8256 193.334 70.4592 194.981 61.3872 194.981ZM182.067 105.672H157.976L157.875 192.36H143.763L143.864 105.672H125.619V91.5599H143.864L143.763 59.9087H157.875L157.976 91.5599H182.067V105.672ZM276.557 91.5599H290.669V192.36H276.557L276.053 173.611C272.76 179.995 268.157 185.169 262.243 189.134C256.33 193.032 249.274 194.981 241.075 194.981C233.683 194.981 226.762 193.603 220.31 190.848C213.859 188.025 208.181 184.161 203.275 179.256C198.37 174.35 194.539 168.672 191.784 162.221C189.029 155.769 187.651 148.848 187.651 141.456C187.651 134.198 188.995 127.377 191.683 120.993C194.438 114.609 198.202 108.998 202.973 104.16C207.811 99.3215 213.389 95.5583 219.706 92.8703C226.09 90.1151 232.91 88.7375 240.168 88.7375C248.568 88.7375 255.893 90.7535 262.142 94.7855C268.392 98.7503 273.365 103.958 277.061 110.409L276.557 91.5599ZM240.773 181.272C247.963 181.272 254.146 179.525 259.32 176.03C264.494 172.469 268.459 167.697 271.214 161.717C274.037 155.736 275.448 149.15 275.448 141.96C275.448 134.568 274.037 127.915 271.214 122.001C268.392 116.021 264.394 111.283 259.219 107.789C254.045 104.294 247.896 102.547 240.773 102.547C233.65 102.547 227.131 104.328 221.218 107.889C215.371 111.384 210.701 116.121 207.206 122.102C203.779 128.083 202.066 134.702 202.066 141.96C202.066 149.285 203.846 155.937 207.408 161.918C210.97 167.832 215.674 172.536 221.52 176.03C227.434 179.525 233.851 181.272 240.773 181.272ZM307.24 192.36V91.5599H321.352V105.47C324.913 100.363 329.55 96.2975 335.262 93.2735C340.974 90.2495 347.19 88.7375 353.91 88.7375C357.808 88.7375 361.571 89.2415 365.2 90.2495L359.454 104.261C356.632 103.387 353.877 102.95 351.189 102.95C345.745 102.95 340.739 104.294 336.169 106.982C331.667 109.67 328.072 113.265 325.384 117.768C322.696 122.27 321.352 127.277 321.352 132.787V192.36H307.24ZM452.058 192.36H435.829L407.605 143.673L387.445 167.765V192.36H373.333V41.1598H387.445V145.79L432.906 91.5599H451.353L417.181 132.182L452.058 192.36ZM472.693 194.981C470.475 194.981 468.594 194.174 467.048 192.561C465.502 191.016 464.73 189.101 464.73 186.816C464.73 184.665 465.502 182.817 467.048 181.272C468.594 179.659 470.475 178.853 472.693 178.853C474.978 178.853 476.893 179.659 478.438 181.272C480.051 182.817 480.858 184.665 480.858 186.816C480.858 189.101 480.051 191.016 478.438 192.561C476.893 194.174 474.978 194.981 472.693 194.981Z" fill="white"/>
<path d="M498.078 93.1086C494.408 93.1086 490.959 92.4028 487.733 90.9911C484.546 89.5794 481.743 87.6636 479.323 85.2436C476.903 82.7833 475.008 79.9599 473.636 76.7736C472.305 73.5873 471.64 70.1993 471.64 66.6096C471.64 63.0199 472.325 59.6319 473.697 56.4456C475.068 53.2593 476.964 50.4561 479.384 48.0361C481.804 45.5758 484.607 43.6599 487.793 42.2886C490.98 40.8769 494.408 40.1711 498.078 40.1711C501.829 40.1711 505.298 40.8769 508.484 42.2886C511.711 43.7003 514.534 45.6564 516.954 48.1571C519.374 50.6174 521.25 53.4408 522.581 56.6271C523.912 59.7731 524.577 63.1006 524.577 66.6096C524.577 70.2396 523.892 73.6478 522.52 76.8341C521.149 80.0204 519.253 82.8438 516.833 85.3041C514.413 87.7241 511.59 89.64 508.363 91.0516C505.177 92.4229 501.749 93.1086 498.078 93.1086ZM498.078 86.4536C501.749 86.4536 505.076 85.5663 508.061 83.7916C511.045 81.9766 513.425 79.5768 515.2 76.5921C517.015 73.5671 517.922 70.2396 517.922 66.6096C517.922 62.9796 517.015 59.6723 515.2 56.6876C513.425 53.6626 511.045 51.2628 508.061 49.4881C505.076 47.7134 501.749 46.8261 498.078 46.8261C494.448 46.8261 491.141 47.7134 488.156 49.4881C485.172 51.2628 482.772 53.6626 480.957 56.6876C479.182 59.6723 478.295 62.9796 478.295 66.6096C478.295 70.2396 479.182 73.5671 480.957 76.5921C482.772 79.5768 485.172 81.9766 488.156 83.7916C491.141 85.5663 494.448 86.4536 498.078 86.4536ZM490.697 78.2256V54.0256H499.772C501.708 54.0256 503.342 54.7516 504.673 56.2036C506.044 57.6153 506.73 59.3294 506.73 61.3461C506.73 62.9191 506.306 64.3308 505.459 65.5811C504.612 66.7911 503.483 67.6179 502.071 68.0616L508 78.2256H502.676L496.989 68.5456H495.356V78.2256H490.697ZM495.356 63.9476H499.772C500.418 63.9476 500.962 63.6854 501.406 63.1611C501.849 62.6368 502.071 62.0318 502.071 61.3461C502.071 60.5798 501.849 59.9546 501.406 59.4706C500.962 58.9463 500.418 58.6841 499.772 58.6841H495.356V63.9476Z" fill="white"/>
</svg>
