<svg width="59" height="21" viewBox="0 0 59 21" fill="none" xmlns="http://www.w3.org/2000/svg">
<mask id="path-1-outside-1_35_37" maskUnits="userSpaceOnUse" x="0" y="0" width="59" height="21" fill="black">
<rect fill="white" width="59" height="21"/>
<path d="M7.12 19.288C4.336 19.288 2.56 18.016 2.152 15.376H2.608C2.992 17.704 4.6 18.856 7.12 18.856C9.616 18.856 11.248 17.848 11.248 15.976C11.248 14.368 10.216 13.624 8.056 13.168L5.392 12.592C3.28 12.136 2.344 11.344 2.344 9.64C2.344 7.72 3.904 6.304 6.688 6.304C9.448 6.304 11.128 7.576 11.416 10.408H10.96C10.696 7.912 9.208 6.736 6.688 6.736C4.12 6.736 2.776 7.96 2.776 9.64C2.776 11.056 3.496 11.752 5.512 12.184L8.248 12.76C10.624 13.264 11.68 14.128 11.68 15.976C11.68 18.088 9.904 19.288 7.12 19.288ZM19.8896 7.024H16.7216V16.384C16.7216 18.28 17.7776 18.712 18.8816 18.712C19.2896 18.712 19.5056 18.688 19.8896 18.64V19.048C19.5536 19.12 19.3376 19.144 18.8336 19.144C17.4176 19.144 16.2896 18.424 16.2896 16.48V7.024H14.0336V6.592H16.2896V3.088H16.7216V6.592H19.8896V7.024ZM27.8544 6.304C30.5424 6.304 32.0544 7.96 32.0544 10.6V19H31.6464V15.832C30.9264 18.04 29.0304 19.288 26.7264 19.288C24.0864 19.288 22.5504 17.656 22.5504 15.712C22.5504 13.792 23.7984 12.424 26.3904 12.136L31.6224 11.536V10.624C31.6224 8.224 30.2544 6.736 27.8784 6.736C25.4784 6.736 23.8224 7.84 23.4624 10.408H23.0064C23.3424 7.72 25.1184 6.304 27.8544 6.304ZM26.7264 18.856C29.6304 18.856 31.6224 16.672 31.6224 13.768V11.968L26.4144 12.568C24.0624 12.832 22.9824 14.08 22.9824 15.736C22.9824 17.44 24.3984 18.856 26.7264 18.856ZM41.2953 6.448C41.4153 6.448 41.4873 6.448 41.6553 6.472V6.904C41.4633 6.88 41.3433 6.88 41.1992 6.88C39.2073 6.88 37.5753 8.68 37.5753 11.8V19H37.1433V6.592H37.5273V9.64C37.9113 7.936 39.3273 6.448 41.2953 6.448ZM53.2871 6.592L46.0631 12.208L53.2871 19H52.7111L45.5831 12.328V19H45.1511V1.72H45.5831V12.088L52.7111 6.592H53.2871ZM56.9368 17.944C57.2968 17.944 57.5848 18.232 57.5848 18.616C57.5848 18.976 57.2968 19.288 56.9368 19.288C56.5528 19.288 56.2648 18.976 56.2648 18.616C56.2648 18.232 56.5528 17.944 56.9368 17.944Z"/>
</mask>
<path d="M7.12 19.288C4.336 19.288 2.56 18.016 2.152 15.376H2.608C2.992 17.704 4.6 18.856 7.12 18.856C9.616 18.856 11.248 17.848 11.248 15.976C11.248 14.368 10.216 13.624 8.056 13.168L5.392 12.592C3.28 12.136 2.344 11.344 2.344 9.64C2.344 7.72 3.904 6.304 6.688 6.304C9.448 6.304 11.128 7.576 11.416 10.408H10.96C10.696 7.912 9.208 6.736 6.688 6.736C4.12 6.736 2.776 7.96 2.776 9.64C2.776 11.056 3.496 11.752 5.512 12.184L8.248 12.76C10.624 13.264 11.68 14.128 11.68 15.976C11.68 18.088 9.904 19.288 7.12 19.288ZM19.8896 7.024H16.7216V16.384C16.7216 18.28 17.7776 18.712 18.8816 18.712C19.2896 18.712 19.5056 18.688 19.8896 18.64V19.048C19.5536 19.12 19.3376 19.144 18.8336 19.144C17.4176 19.144 16.2896 18.424 16.2896 16.48V7.024H14.0336V6.592H16.2896V3.088H16.7216V6.592H19.8896V7.024ZM27.8544 6.304C30.5424 6.304 32.0544 7.96 32.0544 10.6V19H31.6464V15.832C30.9264 18.04 29.0304 19.288 26.7264 19.288C24.0864 19.288 22.5504 17.656 22.5504 15.712C22.5504 13.792 23.7984 12.424 26.3904 12.136L31.6224 11.536V10.624C31.6224 8.224 30.2544 6.736 27.8784 6.736C25.4784 6.736 23.8224 7.84 23.4624 10.408H23.0064C23.3424 7.72 25.1184 6.304 27.8544 6.304ZM26.7264 18.856C29.6304 18.856 31.6224 16.672 31.6224 13.768V11.968L26.4144 12.568C24.0624 12.832 22.9824 14.08 22.9824 15.736C22.9824 17.44 24.3984 18.856 26.7264 18.856ZM41.2953 6.448C41.4153 6.448 41.4873 6.448 41.6553 6.472V6.904C41.4633 6.88 41.3433 6.88 41.1992 6.88C39.2073 6.88 37.5753 8.68 37.5753 11.8V19H37.1433V6.592H37.5273V9.64C37.9113 7.936 39.3273 6.448 41.2953 6.448ZM53.2871 6.592L46.0631 12.208L53.2871 19H52.7111L45.5831 12.328V19H45.1511V1.72H45.5831V12.088L52.7111 6.592H53.2871ZM56.9368 17.944C57.2968 17.944 57.5848 18.232 57.5848 18.616C57.5848 18.976 57.2968 19.288 56.9368 19.288C56.5528 19.288 56.2648 18.976 56.2648 18.616C56.2648 18.232 56.5528 17.944 56.9368 17.944Z" fill="white"/>
<path d="M2.152 15.376V14.176H0.752299L0.966079 15.5593L2.152 15.376ZM2.608 15.376L3.792 15.1807L3.62628 14.176H2.608V15.376ZM8.056 13.168L7.8024 14.3409L7.80813 14.3421L8.056 13.168ZM5.392 12.592L5.6456 11.4191L5.64526 11.419L5.392 12.592ZM11.416 10.408V11.608H12.7442L12.6098 10.2866L11.416 10.408ZM10.96 10.408L9.76666 10.5342L9.88023 11.608H10.96V10.408ZM5.512 12.184L5.26056 13.3574L5.26479 13.3583L5.512 12.184ZM8.248 12.76L8.49701 11.5861L8.49521 11.5857L8.248 12.76ZM7.12 19.288V18.088C5.90067 18.088 5.04689 17.8092 4.47633 17.3706C3.9241 16.9461 3.50449 16.2705 3.33792 15.1927L2.152 15.376L0.966079 15.5593C1.20751 17.1215 1.8799 18.4019 3.01367 19.2734C4.12912 20.1308 5.55534 20.488 7.12 20.488V19.288ZM2.152 15.376V16.576H2.608V15.376V14.176H2.152V15.376ZM2.608 15.376L1.424 15.5713C1.65666 16.9818 2.28624 18.1492 3.3388 18.9458C4.37297 19.7286 5.68658 20.056 7.12 20.056V18.856V17.656C6.03342 17.656 5.28303 17.4074 4.7872 17.0322C4.30976 16.6708 3.94334 16.0982 3.792 15.1807L2.608 15.376ZM7.12 18.856V20.056C8.50483 20.056 9.80243 19.7802 10.7914 19.1126C11.8358 18.4076 12.448 17.3181 12.448 15.976H11.248H10.048C10.048 16.5059 9.8442 16.8564 9.44863 17.1234C8.99757 17.4278 8.23117 17.656 7.12 17.656V18.856ZM11.248 15.976H12.448C12.448 14.8707 12.0716 13.9256 11.2343 13.2216C10.4741 12.5823 9.43655 12.233 8.30387 11.9939L8.056 13.168L7.80813 14.3421C8.83545 14.559 9.39385 14.8097 9.68968 15.0584C9.90844 15.2424 10.048 15.4733 10.048 15.976H11.248ZM8.056 13.168L8.3096 11.9951L5.6456 11.4191L5.392 12.592L5.1384 13.7649L7.8024 14.3409L8.056 13.168ZM5.392 12.592L5.64526 11.419C4.65734 11.2057 4.15555 10.9518 3.89778 10.7095C3.69917 10.5229 3.544 10.2499 3.544 9.64H2.344H1.144C1.144 10.7341 1.45683 11.7091 2.25422 12.4585C2.99245 13.1522 4.01466 13.5223 5.13875 13.765L5.392 12.592ZM2.344 9.64H3.544C3.544 9.03213 3.77801 8.54612 4.22441 8.18681C4.69357 7.8092 5.48858 7.504 6.688 7.504V6.304V5.104C5.10342 5.104 3.72643 5.5068 2.71959 6.31719C1.69 7.14588 1.144 8.32787 1.144 9.64H2.344ZM6.688 6.304V7.504C7.89669 7.504 8.69475 7.78295 9.20774 8.21332C9.70615 8.63146 10.1003 9.33113 10.2222 10.5294L11.416 10.408L12.6098 10.2866C12.4437 8.65286 11.8539 7.30054 10.7503 6.37468C9.66125 5.46105 8.23931 5.104 6.688 5.104V6.304ZM11.416 10.408V9.208H10.96V10.408V11.608H11.416V10.408ZM10.96 10.408L12.1533 10.2818C11.9984 8.81703 11.4622 7.57597 10.4427 6.71791C9.43618 5.87073 8.12291 5.536 6.688 5.536V6.736V7.936C7.77309 7.936 8.46382 8.18927 8.89727 8.55409C9.3178 8.90803 9.65758 9.50296 9.76666 10.5342L10.96 10.408ZM6.688 6.736V5.536C5.22813 5.536 3.95921 5.88275 3.0278 6.61427C2.06666 7.36914 1.576 8.45049 1.576 9.64H2.776H3.976C3.976 9.14951 4.15734 8.77886 4.5102 8.50173C4.89279 8.20124 5.57987 7.936 6.688 7.936V6.736ZM2.776 9.64H1.576C1.576 10.5704 1.8237 11.4593 2.56727 12.1564C3.24368 12.7906 4.19354 13.1287 5.26057 13.3574L5.512 12.184L5.76344 11.0106C4.81446 10.8073 4.39632 10.5814 4.20873 10.4056C4.0883 10.2927 3.976 10.1256 3.976 9.64H2.776ZM5.512 12.184L5.26479 13.3583L8.00079 13.9343L8.248 12.76L8.49521 11.5857L5.75921 11.0097L5.512 12.184ZM8.248 12.76L7.999 13.9339C9.12358 14.1724 9.72608 14.4595 10.0478 14.7519C10.3041 14.9849 10.48 15.3086 10.48 15.976H11.68H12.88C12.88 14.7954 12.5279 13.7631 11.6622 12.9761C10.8619 12.2485 9.74842 11.8516 8.49701 11.5861L8.248 12.76ZM11.68 15.976H10.48C10.48 16.6477 10.2206 17.1099 9.74792 17.4465C9.22716 17.8174 8.36146 18.088 7.12 18.088V19.288V20.488C8.66254 20.488 10.0768 20.1586 11.1401 19.4015C12.2514 18.6101 12.88 17.4163 12.88 15.976H11.68ZM19.8896 7.024V8.224H21.0896V7.024H19.8896ZM16.7216 7.024V5.824H15.5216V7.024H16.7216ZM19.8896 18.64H21.0896V17.2807L19.7407 17.4493L19.8896 18.64ZM19.8896 19.048L20.141 20.2214L21.0896 20.0181V19.048H19.8896ZM16.2896 7.024H17.4896V5.824H16.2896V7.024ZM14.0336 7.024H12.8336V8.224H14.0336V7.024ZM14.0336 6.592V5.392H12.8336V6.592H14.0336ZM16.2896 6.592V7.792H17.4896V6.592H16.2896ZM16.2896 3.088V1.888H15.0896V3.088H16.2896ZM16.7216 3.088H17.9216V1.888H16.7216V3.088ZM16.7216 6.592H15.5216V7.792H16.7216V6.592ZM19.8896 6.592H21.0896V5.392H19.8896V6.592ZM19.8896 7.024V5.824H16.7216V7.024V8.224H19.8896V7.024ZM16.7216 7.024H15.5216V16.384H16.7216H17.9216V7.024H16.7216ZM16.7216 16.384H15.5216C15.5216 17.5517 15.8533 18.5236 16.6061 19.1696C17.3234 19.7853 18.2054 19.912 18.8816 19.912V18.712V17.512C18.4537 17.512 18.2557 17.4227 18.1691 17.3484C18.1178 17.3044 17.9216 17.1123 17.9216 16.384H16.7216ZM18.8816 18.712V19.912C19.3618 19.912 19.6339 19.8813 20.0384 19.8307L19.8896 18.64L19.7407 17.4493C19.3772 17.4947 19.2173 17.512 18.8816 17.512V18.712ZM19.8896 18.64H18.6896V19.048H19.8896H21.0896V18.64H19.8896ZM19.8896 19.048L19.6381 17.8746C19.4019 17.9253 19.2725 17.944 18.8336 17.944V19.144V20.344C19.4026 20.344 19.7053 20.3147 20.141 20.2214L19.8896 19.048ZM18.8336 19.144V17.944C18.3127 17.944 18.0095 17.8113 17.8438 17.6586C17.6966 17.5229 17.4896 17.2172 17.4896 16.48H16.2896H15.0896C15.0896 17.6868 15.4465 18.7131 16.2173 19.4234C16.9696 20.1167 17.9384 20.344 18.8336 20.344V19.144ZM16.2896 16.48H17.4896V7.024H16.2896H15.0896V16.48H16.2896ZM16.2896 7.024V5.824H14.0336V7.024V8.224H16.2896V7.024ZM14.0336 7.024H15.2336V6.592H14.0336H12.8336V7.024H14.0336ZM14.0336 6.592V7.792H16.2896V6.592V5.392H14.0336V6.592ZM16.2896 6.592H17.4896V3.088H16.2896H15.0896V6.592H16.2896ZM16.2896 3.088V4.288H16.7216V3.088V1.888H16.2896V3.088ZM16.7216 3.088H15.5216V6.592H16.7216H17.9216V3.088H16.7216ZM16.7216 6.592V7.792H19.8896V6.592V5.392H16.7216V6.592ZM19.8896 6.592H18.6896V7.024H19.8896H21.0896V6.592H19.8896ZM32.0544 19V20.2H33.2544V19H32.0544ZM31.6464 19H30.4464V20.2H31.6464V19ZM31.6464 15.832H32.8464L30.5056 15.46L31.6464 15.832ZM26.3904 12.136L26.523 13.3287L26.5272 13.3282L26.3904 12.136ZM31.6224 11.536L31.7592 12.7282L32.8224 12.6062V11.536H31.6224ZM23.4624 10.408V11.608H24.5059L24.6508 10.5746L23.4624 10.408ZM23.0064 10.408L21.8157 10.2592L21.6471 11.608H23.0064V10.408ZM31.6224 11.968H32.8224V10.6218L31.4851 10.7759L31.6224 11.968ZM26.4144 12.568L26.5483 13.7605L26.5518 13.7601L26.4144 12.568ZM27.8544 6.304V7.504C28.9473 7.504 29.6565 7.83426 30.0966 8.29289C30.5438 8.7588 30.8544 9.50467 30.8544 10.6H32.0544H33.2544C33.2544 9.05533 32.8091 7.6532 31.8282 6.63111C30.8404 5.60174 29.4495 5.104 27.8544 5.104V6.304ZM32.0544 10.6H30.8544V19H32.0544H33.2544V10.6H32.0544ZM32.0544 19V17.8H31.6464V19V20.2H32.0544V19ZM31.6464 19H32.8464V15.832H31.6464H30.4464V19H31.6464ZM31.6464 15.832L30.5056 15.46C29.9609 17.1303 28.5587 18.088 26.7264 18.088V19.288V20.488C29.5022 20.488 31.892 18.9497 32.7873 16.204L31.6464 15.832ZM26.7264 19.288V18.088C25.6563 18.088 24.916 17.7608 24.4569 17.3423C23.9999 16.9255 23.7504 16.3569 23.7504 15.712H22.5504H21.3504C21.3504 17.0111 21.869 18.2305 22.8399 19.1157C23.8089 19.9992 25.1566 20.488 26.7264 20.488V19.288ZM22.5504 15.712H23.7504C23.7504 15.0277 23.9639 14.5329 24.3347 14.1726C24.7239 13.7944 25.4029 13.4531 26.523 13.3287L26.3904 12.136L26.2579 10.9433C24.7859 11.1069 23.5449 11.5936 22.6622 12.4514C21.761 13.3271 21.3504 14.4763 21.3504 15.712H22.5504ZM26.3904 12.136L26.5272 13.3282L31.7592 12.7282L31.6224 11.536L31.4857 10.3438L26.2537 10.9438L26.3904 12.136ZM31.6224 11.536H32.8224V10.624H31.6224H30.4224V11.536H31.6224ZM31.6224 10.624H32.8224C32.8224 9.20072 32.414 7.90269 31.511 6.95309C30.6001 5.99512 29.3229 5.536 27.8784 5.536V6.736V7.936C28.81 7.936 29.4048 8.22088 29.7718 8.60691C30.1469 9.00131 30.4224 9.64728 30.4224 10.624H31.6224ZM27.8784 6.736V5.536C26.5053 5.536 25.1988 5.85154 24.1636 6.66581C23.1104 7.49416 22.4872 8.72095 22.2741 10.2414L23.4624 10.408L24.6508 10.5746C24.7977 9.52705 25.1824 8.91784 25.6473 8.55219C26.1301 8.17246 26.8516 7.936 27.8784 7.936V6.736ZM23.4624 10.408V9.208H23.0064V10.408V11.608H23.4624V10.408ZM23.0064 10.408L24.1972 10.5568C24.3352 9.45276 24.7484 8.72845 25.2987 8.26987C25.858 7.80373 26.6895 7.504 27.8544 7.504V6.304V5.104C26.2834 5.104 24.8589 5.51227 23.7622 6.42613C22.6565 7.34755 22.0137 8.67524 21.8157 10.2592L23.0064 10.408ZM26.7264 18.856V20.056C30.3537 20.056 32.8224 17.2726 32.8224 13.768H31.6224H30.4224C30.4224 16.0714 28.9072 17.656 26.7264 17.656V18.856ZM31.6224 13.768H32.8224V11.968H31.6224H30.4224V13.768H31.6224ZM31.6224 11.968L31.4851 10.7759L26.2771 11.3759L26.4144 12.568L26.5518 13.7601L31.7598 13.1601L31.6224 11.968ZM26.4144 12.568L26.2806 11.3755C24.9258 11.5276 23.7867 11.98 22.9771 12.7724C22.1508 13.5811 21.7824 14.6325 21.7824 15.736H22.9824H24.1824C24.1824 15.1835 24.3541 14.7829 24.6558 14.4876C24.9741 14.176 25.5511 13.8724 26.5483 13.7605L26.4144 12.568ZM22.9824 15.736H21.7824C21.7824 18.2434 23.8857 20.056 26.7264 20.056V18.856V17.656C24.9112 17.656 24.1824 16.6366 24.1824 15.736H22.9824ZM41.6553 6.472H42.8553V5.43124L41.825 5.28406L41.6553 6.472ZM41.6553 6.904L41.5064 8.09473L42.8553 8.26334V6.904H41.6553ZM37.5752 19V20.2H38.7752V19H37.5752ZM37.1432 19H35.9432V20.2H37.1432V19ZM37.1432 6.592V5.392H35.9432V6.592H37.1432ZM37.5272 6.592H38.7272V5.392H37.5272V6.592ZM37.5272 9.64H36.3273L38.6979 9.90381L37.5272 9.64ZM41.2952 6.448V7.648C41.3598 7.648 41.3752 7.64829 41.3907 7.64915C41.4018 7.64977 41.4264 7.65148 41.4855 7.65994L41.6553 6.472L41.825 5.28406C41.5789 5.24891 41.4446 5.248 41.2952 5.248V6.448ZM41.6553 6.472H40.4552V6.904H41.6553H42.8553V6.472H41.6553ZM41.6553 6.904L41.8041 5.71327C41.5354 5.67969 41.3547 5.68 41.1992 5.68V6.88V8.08C41.2743 8.08 41.316 8.08016 41.3593 8.08196C41.398 8.08357 41.443 8.08681 41.5064 8.09473L41.6553 6.904ZM41.1992 6.88V5.68C39.8132 5.68 38.5663 6.31675 37.695 7.4307C36.8359 8.52914 36.3753 10.0391 36.3753 11.8H37.5752H38.7752C38.7752 10.4409 39.1306 9.49086 39.5855 8.9093C40.0282 8.34326 40.5933 8.08 41.1992 8.08V6.88ZM37.5752 11.8H36.3753V19H37.5752H38.7752V11.8H37.5752ZM37.5752 19V17.8H37.1432V19V20.2H37.5752V19ZM37.1432 19H38.3433V6.592H37.1432H35.9432V19H37.1432ZM37.1432 6.592V7.792H37.5272V6.592V5.392H37.1432V6.592ZM37.5272 6.592H36.3273V9.64H37.5272H38.7272V6.592H37.5272ZM37.5272 9.64L38.6979 9.90381C38.9865 8.62332 40.0062 7.648 41.2952 7.648V6.448V5.248C38.6483 5.248 36.836 7.24868 36.3566 9.37619L37.5272 9.64ZM53.2871 6.592L54.0236 7.53939L56.7858 5.392H53.2871V6.592ZM46.0631 12.208L45.3266 11.2606L44.2192 12.1215L45.2411 13.0823L46.0631 12.208ZM53.2871 19V20.2H56.3152L54.109 18.1257L53.2871 19ZM52.7111 19L51.891 19.8761L52.2371 20.2H52.7111V19ZM45.5831 12.328L46.4031 11.4519L44.3831 9.5611V12.328H45.5831ZM45.5831 19V20.2H46.7831V19H45.5831ZM45.1511 19H43.9511V20.2H45.1511V19ZM45.1511 1.72V0.519999H43.9511V1.72H45.1511ZM45.5831 1.72H46.7831V0.519999H45.5831V1.72ZM45.5831 12.088H44.3831V14.5285L46.3158 13.0383L45.5831 12.088ZM52.7111 6.592V5.392H52.3022L51.9783 5.64168L52.7111 6.592ZM53.2871 6.592L52.5506 5.64461L45.3266 11.2606L46.0631 12.208L46.7996 13.1554L54.0236 7.53939L53.2871 6.592ZM46.0631 12.208L45.2411 13.0823L52.4651 19.8743L53.2871 19L54.109 18.1257L46.885 11.3337L46.0631 12.208ZM53.2871 19V17.8H52.7111V19V20.2H53.2871V19ZM52.7111 19L53.5311 18.1239L46.4031 11.4519L45.5831 12.328L44.763 13.2041L51.891 19.8761L52.7111 19ZM45.5831 12.328H44.3831V19H45.5831H46.7831V12.328H45.5831ZM45.5831 19V17.8H45.1511V19V20.2H45.5831V19ZM45.1511 19H46.3511V1.72H45.1511H43.9511V19H45.1511ZM45.1511 1.72V2.92H45.5831V1.72V0.519999H45.1511V1.72ZM45.5831 1.72H44.3831V12.088H45.5831H46.7831V1.72H45.5831ZM45.5831 12.088L46.3158 13.0383L53.4438 7.54232L52.7111 6.592L51.9783 5.64168L44.8503 11.1377L45.5831 12.088ZM52.7111 6.592V7.792H53.2871V6.592V5.392H52.7111V6.592ZM56.9368 17.944V19.144C56.7882 19.144 56.6419 19.0817 56.5366 18.9737C56.4309 18.8653 56.3848 18.731 56.3848 18.616H57.5848H58.7848C58.7848 17.5981 57.988 16.744 56.9368 16.744V17.944ZM57.5848 18.616H56.3848C56.3848 18.3705 56.5782 18.088 56.9368 18.088V19.288V20.488C58.0154 20.488 58.7848 19.5815 58.7848 18.616H57.5848ZM56.9368 19.288V18.088C57.2433 18.088 57.4648 18.3414 57.4648 18.616H56.2648H55.0648C55.0648 19.6106 55.8623 20.488 56.9368 20.488V19.288ZM56.2648 18.616H57.4648C57.4648 18.7321 57.4175 18.8724 57.3053 18.9845C57.1932 19.0967 57.0529 19.144 56.9368 19.144V17.944V16.744C55.8901 16.744 55.0648 17.5693 55.0648 18.616H56.2648Z" fill="white" mask="url(#path-1-outside-1_35_37)"/>
</svg>
